<?xml version="1.0" encoding="utf-8"?>
<!-- Generator: Adobe Illustrator 25.3.1, SVG Export Plug-In . SVG Version: 6.00 Build 0)  -->
<svg version="1.1" id="Layer_1" xmlns="http://www.w3.org/2000/svg" xmlns:xlink="http://www.w3.org/1999/xlink" x="0px" y="0px"
	 viewBox="0 0 1100.3 1282" style="enable-background:new 0 0 1100.3 1282;" xml:space="preserve">
<style type="text/css">
	.st0{fill:#70DAFF;}
	.st1{fill:#08BDFD;}
	.st2{fill:#60AD50;}
	.st3{fill:#AA7AB5;}
	.st4{fill:#D5635C;}
	.st5{opacity:0.3;fill:#08BDFD;enable-background:new    ;}
	.st6{fill:url(#SVGID_1_);}
	.st7{opacity:0.2;fill:#303030;enable-background:new    ;}
	.st8{fill:#EA9F75;}
	.st9{fill:#F3DBB3;}
	.st10{fill:#E49870;}
	.st11{opacity:0.5;fill:url(#SVGID_2_);enable-background:new    ;}
	.st12{fill:url(#SVGID_3_);}
	.st13{opacity:0.5;}
	.st14{opacity:0.5;fill:#08BDFD;enable-background:new    ;}
	.st15{fill:url(#SVGID_4_);}
	.st16{fill:#735232;}
	.st17{fill:#303030;}
	.st18{fill:#3795D2;fill-opacity:0.2;}
	.st19{fill:#336070;}
	.st20{fill:url(#SVGID_5_);}
	.st21{opacity:0.3;fill:#F3DBB3;enable-background:new    ;}
	.st22{fill:url(#SVGID_6_);}
</style>
<path class="st0" d="M392.1,1016.8c-4.2,0.5-10.2-1.3-14.5-1.4c-7.3,0.1-14.5,0.5-21.7,1.4c-12.2,1.9-24.2,4.8-35.8,9.1
	c-13.6,5.2-26.4,12.6-37.6,22.1c-2.8,2.4-4.7,6-8,4c-0.9-0.5-7.9-4.3-7.7-5.1c9.6-23.8,24.1-45.3,42.5-63.2c10.8-10.7,23-20,36-27.7
	c23.7-13.8,63.1-25.4,92.3-28.4C442.1,953.3,387.8,990.9,392.1,1016.8z"/>
<path class="st1" d="M317.8,966.5c-27.4,21.2-50.9,51.6-63.1,84.8c-1.8,4.1-3.1,8.4-4,12.9c0,0.1,0,1.1,0,1.1
	c-0.3,0-0.6,2.3-0.8,3.8c-1.1,10.8,1.4,21.3,5.4,31.5c1.7,4,2.8,7.8,6.6,10.1c1.9,1.1,6.4,3.2,8.5,1.4c10.2-8.7,33.4-23.7,26.9-40
	c-1.7-4.3-5.6-6.9-7.7-11c-1.1-2.6-1.8-5.4-1.5-8c1.3-1.9,2.7-3.7,4.1-5.4c5.1-5.4,11-9.9,17.5-13.6c1-0.6,9.2-4.3,9.3-5.2
	c0-2.8,0.1-5.6,0.1-8.5C319.3,1002.4,318.7,984.4,317.8,966.5z"/>
<path class="st0" d="M674,1106c45.1-48.1,80.5-108,58-166c0,0-40.5-17.3-132.2-14.7c-14.2,0.4-29.2,2.8-46.4,2.8s-30-2.3-43.4-2.7
	c-71.3-2.6-91.3,5.6-91.3,5.6c-99.6,39-43.7,350.9,269,350.9C625.7,1244,616.5,1167,674,1106z"/>
<path class="st1" d="M592.9,1046.1c3.2-40.5-26.9-76-67.3-79.2c-40.4-3.2-75.7,27.2-78.9,67.7c-3.2,40.5,26.9,76,67.3,79.2
	C554.4,1117,589.7,1086.8,592.9,1046.1z"/>
<path class="st2" d="M545,1010.5c1-12.6-8.4-23.6-20.9-24.6c-12.5-1-23.5,8.4-24.5,21c-1,12.6,8.4,23.6,20.9,24.6
	C533,1032.5,544,1023,545,1010.5z"/>
<path class="st3" d="M570.6,1064c1-12.6-8.4-23.6-20.9-24.6c-12.5-1-23.5,8.4-24.5,21s8.4,23.6,20.9,24.6S569.6,1076.6,570.6,1064z"
	/>
<path class="st4" d="M511.4,1059.4c1-12.6-8.4-23.6-20.9-24.6c-12.5-1-23.5,8.4-24.5,21c-1,12.6,8.4,23.6,20.9,24.6
	C499.5,1081.3,510.4,1072,511.4,1059.4z"/>
<path class="st0" d="M796.2,989.8c-10.5-12-22.2-22.7-35.1-32c-6.5-4.7-14.3-10.8-22.2-14.9l-0.6-0.3c-34.2-18-43.9,22.3-43,51.6
	c0.9,29.3,26.6,22.2,29.1,21.8c2.4-0.4,19.3,2.4,26,4.1c11,2.8,21.8,6.6,32,11.5c13.3,6.5,25.2,15.2,35.7,25.6
	c3.3,3.3,3.1,4.6,7,2.4c0.8-0.5,7.3-3.4,7-4.1C825,1031.3,812.7,1008.9,796.2,989.8L796.2,989.8z"/>
<path class="st1" d="M851.6,1070.6c-0.6-4.2-1.7-8.3-3.3-12.1c-10.3-33.8-32-65.5-58.3-88.4c-1.9,17.6-3.4,35.4-4.3,53.2
	c-0.1,2.9-0.3,6-0.4,8.9c0,1,8,5.1,8.9,5.7c6.2,4.1,11.7,8.9,16.6,14.5c1.4,1.8,2.7,3.7,3.8,5.6c0.1,2.8-0.6,5.6-1.9,8
	c-2.3,4-6.2,6.2-8.3,10.5c-7.4,16.1,14.9,32.3,24.6,41.4c2,1.9,6.6,0,8.5-1c4-2,5.4-5.7,7.1-9.6c4.7-9.3,7.3-19.6,7.4-30
	C852.1,1075.3,851.9,1073.9,851.6,1070.6z"/>
<path class="st5" d="M434.1,927.8c-5.2,0.5-10.3,1.7-15.3,3.3c-7.1,2.8-13.6,7-19,12.5c-6,6-10.8,12.9-14.4,20.5
	c-0.9,2.2-1.8,4.5-2.3,6.8c-0.4,1.1-0.8,2.4-1,3.6c-0.1,0.6-0.6,1,0,1.4l1.4,0.8c3.1,1.7,6.2,3.2,9.3,4.7
	c29.2,14.2,60.3,23.8,92.3,28.9c19.3,3.1,38.8,4.6,58.4,4.7c10.3,0,20.7,0.8,31.1,0.8c9.7,0,19.5-0.4,29.2-1.1
	c33.3-2.6,66-10.2,97.2-22.4c12.6-5,24.9-10.8,36.8-17.5c3.6-2,7.3-4.1,10.7-6.4c2.7-1.8,5.4-3.8,7.8-6c1-0.9,2-1.9,2.8-3.1
	c0.4-0.5,0.8-1,1-1.5c0.6-1,0-1-1-1.8c-4.1-3.1-8.2-6-12.4-8.8c-3.8-2.3-7.8-4.5-11.9-6.2c-1.4-0.6-2.8-1.1-4.2-1.8
	c-0.5-0.3-1.7-1.3-2.2-1.3c-1,0-1.9-0.3-2.8-0.5c-2.3-0.6-4.5-1-6.8-1.5c-8.8-2.2-17.6-4.1-26.5-5.5c-5-0.8-9.9-1.4-14.9-2
	c-2.2-0.3-4.2-0.4-6.4-0.4c-2.4,0-4.7-0.8-7.1-0.9c-20.3-1.8-40.7-2.3-61.1-1.7c-19.9,0.5-39.4,3.7-59.3,2.7
	c-8.9-0.4-17.9-1.5-26.8-2.2c-9.8-0.6-19.8-0.8-29.6-0.8c-16.4,0-33,0.8-49.3,2.3L434.1,927.8C422.8,929.4,452.9,925.6,434.1,927.8z
	"/>
<path class="st0" d="M998.9,630.1l-456.9-10.7L85.2,608.6l-32.9,69.6c0,0,104.4,135.2,485,144.1c380.7,8.9,491.3-121.1,491.3-121.1
	L998.9,630.1z"/>
<path class="st0" d="M474.9,963.6C356.3,938.8,197.5,877.2,115,723.8c-49.1-91.3-49.7-176.7-46.8-199.9
	c10.6-130.2,59.9-186.8,65.5-192.8l5.1-5.6l6.8-3.3c7.8-3.8,192.7-92.8,501.7-28.3c90.4,18.9,183.4,49.3,276.2,90.7l9.3,4.1l6.2,7.9
	c82.8,104,86.3,240.5,9.7,364.7C866.9,894.1,688.6,1008.2,474.9,963.6z"/>
<path class="st0" d="M1056.4,370.8c0,0,49,115.4,43.5,199.5c-6.8,106.2-73.7,249.9-353.8,365.7c-76.9-342.9-40.8-576.5-40.8-576.5
	l351.4,72.9"/>
<path class="st0" d="M26.9,401.7c0,0-171.8,357.8,352.3,532.2c54.8-326.7,4.7-546.2,4.7-546.2L37,418.3L26.9,401.7z"/>
<path class="st1" d="M737.5,896C1122.7,760.1,1002,456,1002,456l-90.7-27.9l-180,436.5C733.2,874.9,735.3,885.5,737.5,896z"/>
<path class="st1" d="M77.3,416.2c0,0-145.7,352,320.3,485.7c-45.9-172.4-223.6-484.3-223.6-484.3L77.3,416.2z"/>
<linearGradient id="SVGID_1_" gradientUnits="userSpaceOnUse" x1="548.9316" y1="-238.8378" x2="616.1512" y2="166.1113" gradientTransform="matrix(1 0 0 1 0 882)">
	<stop  offset="0" style="stop-color:#F9AB81"/>
	<stop  offset="1" style="stop-color:#C87C66"/>
</linearGradient>
<path class="st6" d="M109.4,528.3c-3.8,22.7-8.4,315.1,373.8,394.9c326,68.1,600-278.6,423.6-500.8
	c-458.3-203.9-742.7-63.1-742.7-63.1S118.9,407.8,109.4,528.3z"/>
<path class="st7" d="M950.5,503.2c-9.4-29.5-24.2-56.9-43.6-81c-12.1-5.4-24-10.5-35.8-15.4l-350.6-49.9L163,360.5
	c-5.9,7-33.2,43.4-47,119C279,448.5,617,406.4,950.5,503.2z"/>
<path class="st8" d="M352.7,476.4c0,0,138.9,29.5,111.8,176.9c-5.1,29.8-15.9,36-15.9,36s3.8-132.9-79.7-124.7
	c-83.5,8.2-173.9,43.7-173.9,43.7l-27.9-56.4l104-75.6L352.7,476.4z"/>
<path class="st9" d="M393,734.7c0,0,120.2,86.8,272.7-9.9C629,907,415.1,862.4,393,734.7z"/>
<path class="st10" d="M373.1,782.8c0,0-8.8-61.1,60.1-80.1L373.1,782.8z"/>
<path class="st10" d="M642,692.5c0,0-3.3,55.5,66.6,76.2L642,692.5z"/>
<path class="st0" d="M563.7,21.1C92.5,7.4,7.4,465.7,7.4,465.7s175.6-79.9,549.7-69.1s541.4,131.2,541.4,131.2
	S1046.3,35.6,563.7,21.1z"/>
<linearGradient id="SVGID_2_" gradientUnits="userSpaceOnUse" x1="755.0852" y1="-563.7587" x2="905.6696" y2="-722.8249" gradientTransform="matrix(1 0 0 1 0 882)">
	<stop  offset="0" style="stop-color:#70DAFF"/>
	<stop  offset="1" style="stop-color:#FFFFFF"/>
</linearGradient>
<path class="st11" d="M984.2,284c-49.5-82.8-111.6-143.3-185.4-181.7c0,0-95.8-55.8-213.1-54.1c0.1,123.4,0.3,296.1,0.3,296.1h4
	c2.4,0,6.6,0.1,9.9,0.1c178.1,3.1,297.6,30.1,374.4,62.6c26.3,11.1,62.2,25.8,84.8,38.9C1046.6,401.4,1022.2,347.5,984.2,284z"/>
<linearGradient id="SVGID_3_" gradientUnits="userSpaceOnUse" x1="414848.2812" y1="-142215.0469" x2="461439.9062" y2="-158168.0312" gradientTransform="matrix(1 0 0 1 0 882)">
	<stop  offset="0" style="stop-color:#D9F5FF"/>
	<stop  offset="1" style="stop-color:#08BDFD"/>
</linearGradient>
<path class="st12" d="M769.3,87.1l2.2,0.6l6.1,2l9.7,3.7c3.7,1.7,8,3.6,12.8,5.6c4.8,2.2,9.8,5.1,15.4,7.9
	c5.6,2.9,11.3,6.6,17.7,10.3c6.4,3.7,12.6,8.4,19.4,12.9c6.9,4.6,13.4,10.2,20.5,15.7l5.4,4.2l5.2,4.7l10.7,9.6
	c7.4,6.2,14.3,13.8,21.5,21c3.6,3.7,7.4,7.4,11,11.3l10.5,12.2c7,8.3,14.5,16.6,20.9,25.9c3.3,4.6,6.6,9.2,10.1,13.8
	c3.4,4.6,7,9.2,9.9,14.2l18.7,29.8c3.3,5,5.9,10.3,8.7,15.6c2.9,5.2,5.6,10.6,8.4,15.8c2.8,5.4,5.6,10.6,8.5,15.9l7.4,16.4
	c5,11,9.8,21.9,14.7,32.9c4.1,11.2,8.3,22.4,12.4,33.5c4,11.2,8.4,21.8,11.6,33.4c3.2,11.5,5.6,22.7,7.5,33.8
	c3.8,21.5,5.5,43.4,5.1,65.2c-0.3,19.5-2.4,39-6.4,58.1c-3.2,16.2-8,32-14.5,47.2c-4.8,11.7-10.7,23-17.2,33.8
	c-2.6,4.6-5.4,8.3-7.7,11.7c-2.3,3.4-4.3,6.1-6.1,8.3l-5.2,6.8l4.7-7.3c1.5-2.3,3.4-5.2,5.4-8.8c1.9-3.6,4.5-7.4,6.8-12.1
	c5.9-11.1,10.8-22.4,14.9-34.3c5.2-15.2,9.2-30.9,11.9-46.8c3.1-18.7,4.3-37.7,4-56.9c-0.5-21.2-2.8-42.3-6.8-63.1
	c-2.2-10.8-4.7-21.7-7.9-32.5s-7.7-21.5-11.6-32.5l-12.4-33c-4.8-10.8-9.6-21.5-14.4-32.4l-7.3-16.2c-2.8-5.2-5.5-10.5-8.3-15.7
	l-8.3-15.7c-2.8-5.1-5.2-10.5-8.4-15.3c-6.1-9.9-12.1-19.8-18-29.6c-2.8-5-6.4-9.4-9.6-14l-9.7-13.6c-6.1-9.2-13.1-17.6-19.9-25.9
	l-9.9-12.4c-3.4-4-7-7.7-10.3-11.5c-6.9-7.4-13.4-14.9-20.5-21.4l-10.2-9.7l-5-4.7l-5.1-4.3l-9.9-8.4c-3.3-2.7-6.4-5.6-9.6-7.9
	c-6.5-4.8-12.5-9.7-18.5-13.8s-11.6-7.8-17-11.2l-14.9-8.7L786,95l-9.3-4.3l-5.9-2.4l-2-0.8L769.3,87.1z"/>
<g class="st13">
	<path class="st14" d="M1021.6,461.8l-15.7-5.5l-18.1-6.2c-7-2.3-14.9-5.1-23.5-7.9c-8.5-2.8-17.9-6-27.8-9.1
		c-9.9-3.1-20.3-6.4-31.1-9.7c-10.8-3.1-21.9-6.8-33.4-9.8c-11.5-3.1-23-6.6-34.7-9.4l-17.5-4.5l-17.5-4.1c-5.7-1.3-11.5-2.8-17.2-4
		l-16.8-3.4c-5.5-1.1-11-2.4-16.3-3.3l-15.7-2.7l-14.9-2.7c-4.8-0.9-9.4-1.4-14-2l-24.5-3.6l-18.9-2l-16.6-2l0.1-5l16.8-0.1h19.3
		l25,1.4c4.6,0.4,9.3,0.5,14.3,1l15.2,1.7l16.1,1.9c5.5,0.8,11.1,1.7,16.7,2.6l17.2,2.8c5.9,1,11.6,2.3,17.6,3.4
		c6,1.1,11.9,2.3,17.9,3.7l17.9,4.3c11.9,2.8,23.7,6.1,35.3,9.4c11.6,3.3,22.8,7,33.8,10.6c10.7,4,21.3,7.4,31.1,11.2
		c9.8,3.8,19,7.5,27.4,11.2c18.9,7.9,37.1,17,54.8,27.2L1021.6,461.8z"/>
</g>
<g class="st13">
	<path class="st14" d="M436.6,370.3L420,371l-19.1,0.8c-7.4,0.5-15.7,0.6-24.7,1.3c-9.1,0.6-18.9,1-29.2,1.7
		c-10.3,0.6-21.3,1.5-32.5,2.3c-11.2,1.1-23,1.7-34.8,3.1c-11.9,1.4-23.8,2.2-35.8,3.8L226,386l-17.7,2.7
		c-5.9,0.9-11.7,1.7-17.5,2.6l-17,2.9c-5.6,1-11.1,1.8-16.4,2.8l-15.6,3.2l-14.8,3.1c-4.8,0.9-9.3,2.2-13.8,3.2L89.1,412l-18.4,5
		l-16.2,4.2l-1.7-4.7l15.6-6.2l17.9-7l23.7-7.8c8.7-2.9,18.2-5.6,28.4-8.3l15.7-4.1c5.4-1.3,10.8-2.4,16.6-3.7l17.1-3.7
		c5.7-1.1,11.7-2,17.6-3.2c6-1,11.9-2.2,18-3.1l18.2-2.4c12.1-1.7,24.2-3.1,36.3-4.1c12-1.1,23.8-1.8,35.3-2.6
		c11.5-0.3,22.6-0.9,33-0.8c10.5,0,20.4,0,29.6,0.5c20.4,0.5,40.7,2.3,60.8,5.4L436.6,370.3z"/>
</g>
<path class="st8" d="M855.6,523.8c0,0-0.3,0-95.1-52.5c-159.9-69.9-182.1,65.4-179.9,120.1c2.7,76.5,123.3,170.6,254.5,67.2
	C912.7,606.1,855.6,523.8,855.6,523.8z"/>
<path class="st8" d="M431.8,544.5c-11-4.8-22.4-9.1-33.9-12.4c-34.6-45.6-54.7-32.9-54.7-32.9l-80.5,28.2
	c-55,10.7-91.9,32.1-91.9,32.1s7.4,145,150.1,133.6c64.9-5.2,101.7-61.1,98.8-108.5C423.6,572.7,427.5,559.3,431.8,544.5z"/>
<path class="st8" d="M326.2,736.3c84.8,0,153.6-65.5,153.6-146.2c0-80.8-68.7-146.2-153.6-146.2S172.5,509.3,172.5,590
	C172.5,670.7,241.3,736.3,326.2,736.3z"/>
<path class="st1" d="M519.2,0.1C480.7-0.8,307.1,7.2,305,189.4c-1.7,159.5,129.2,183.5,161.2,262.5c24.9-0.4,87,0.8,92.1,1
	c35.4-76.1,167.7-94.6,170.2-253.1C731.3,17.6,557.9,1.1,519.2,0.1z"/>
<linearGradient id="SVGID_4_" gradientUnits="userSpaceOnUse" x1="514.4449" y1="-514.5736" x2="514.4449" y2="-761.0248" gradientTransform="matrix(1 0 0 1 0 882)">
	<stop  offset="0" style="stop-color:#CBF2FF"/>
	<stop  offset="1" style="stop-color:#FFFFFF"/>
</linearGradient>
<path class="st15" d="M463.6,326.2c-14.8-7-28.2-16.8-39.3-28.9c-11.2-12.4-20-26.6-25.9-42.2c-6.2-16.4-9.2-34-8.8-51.6
	c0.1-17.5,3.7-34.8,10.5-51c6.4-15.2,15.6-29.1,27.2-40.8c11.5-11.5,25.1-20.5,40.2-26.8c15.6-6.4,32.4-9.3,49.2-8.8
	c13.6,0.3,27,2.7,39.9,6.9c24,8.2,44.6,23.8,58.8,44.9c7.3,10.8,12.9,22.7,16.7,35.3l-52.7-1.4c-5.9-11.7-14.4-21.7-25.1-29.2
	c-10.8-7.7-23.6-11.6-38.4-12c-10.3-0.4-20.7,1.8-30,6c-9.3,4.2-17.6,10.5-24.4,18c-7.1,8-12.8,17.3-16.6,27.3
	c-4.2,10.6-6.4,21.9-6.5,33.3c-0.3,11.6,1.7,23.2,5.5,34c3.6,10.2,8.8,19.8,15.7,28.2c6.6,8,14.7,14.5,23.8,19.4
	c9.2,4.8,19.4,7.4,29.8,7.7c8.7,0.3,17.2-1,25.4-3.8c7.7-2.7,14.8-6.6,21.2-11.6c6.1-4.7,11.5-10.6,15.7-17.2
	c4.2-6.6,7.3-13.8,9.1-21.4l-63.8-1.7l0.8-44.2l117.6,3.1c0.4,22.1-2.6,41.8-8.7,59.4c-5.6,16.4-14.5,31.5-26.3,44.4
	c-11.2,12.1-25.1,21.4-40.5,27.5c-16.2,6.4-33.5,9.4-51,8.8C495.6,337.2,478.9,333.4,463.6,326.2L463.6,326.2z"/>
<path class="st9" d="M865.4,620.6c0,0-37.6-81.2-195.6-80.8c-32.4,24.1-44.9,111.2,36,138.2C816.2,714.7,865.4,620.6,865.4,620.6z"
	/>
<path class="st16" d="M768.2,659.5c16.6,3.4,33.9,1.5,49.3-5.5s28.3-18.7,36.7-33.5c-17.3-25.2-57.8-66.8-140.3-77.9
	c-6,11-9.3,23.2-9.7,35.7c-0.4,12.5,2.2,24.9,7.4,36.2s13.1,21.3,23,29.1C744.5,651.6,756,657,768.2,659.5L768.2,659.5z"/>
<path class="st17" d="M784.7,668.6c-6,0-12.1-0.6-18-1.9c-13.4-2.8-25.9-8.7-36.6-17.2c-10.7-8.5-19.3-19.4-25-31.7
	c-5.7-12.4-8.5-26-8-39.7c0.4-13.6,4.1-27,10.6-39l2.4-4.5l5.1,0.6c86.2,11.6,128,55.8,145.4,81.2l2.7,3.8l-2.3,4.1
	c-7.7,13.4-18.7,24.6-32.1,32.4C815.3,664.5,800.1,668.6,784.7,668.6L784.7,668.6z M718.4,550.8c-7.4,16.7-8.2,35.4-2.4,52.8
	c5.9,17.2,17.9,31.7,33.8,40.5c15.9,8.8,34.6,11.3,52.3,7c17.7-4.3,33.2-15,43.4-30.1C828.4,597.8,790.9,562,718.4,550.8
	L718.4,550.8z"/>
<path class="st17" d="M742.6,547.6c-1.5,3.7-2.7,7.4-3.6,11.3c-2.8,13.5-1,27.7,5.2,40s16.4,22.2,29.1,28.1
	c12.6,5.7,26.8,7.1,40.2,3.8s25.4-11.1,33.8-22.2C825.6,586.5,792.2,562.4,742.6,547.6z"/>
<path class="st9" d="M822.2,603c0.6-3.3,0.4-6.8-0.9-9.9c-1.3-3.2-3.4-5.9-6.2-7.8c-2.8-1.9-6.1-2.9-9.6-2.9s-6.8,0.9-9.6,2.8
	c-2.8,1.9-5.1,4.6-6.4,7.7c-1.3,3.2-1.7,6.6-1,9.9c0.6,3.3,2.3,6.4,4.6,8.9c2.4,2.4,5.5,4.1,8.8,4.8c2.2,0.5,4.5,0.5,6.8,0.1
	c2.2-0.4,4.3-1.3,6.2-2.6c1.9-1.3,3.6-2.8,4.8-4.7C820.8,607.4,821.7,605.3,822.2,603z"/>
<path class="st9" d="M317.1,542.8c-102.9-2.4-131.7,32.9-131.7,32.9c20.4,109.8,120.9,114.6,166.5,95.6c0,0,49.7-17.9,47.8-77.9
	c-12-38.4-29.7-51.6-29.7-51.6L317.1,542.8z"/>
<path class="st17" d="M859.7,631.7c-94.5-93.2-219.6-91.9-220.8-91.9l-1-20.7c5.4-0.3,134-5.5,234.9,94.1L859.7,631.7z"/>
<path class="st17" d="M381.8,525.6l-127.5,16.2l0.1,16.4c0.8,38.4,29.3,78.4,63.6,89.8c11.3,4,23.5,5.4,35.4,4
	c12-1.4,23.5-5.4,33.7-11.9l2-1.1l0.8-1.7C420.2,584.4,381.8,525.6,381.8,525.6z"/>
<path class="st16" d="M272,552.5c0,30.3,19.3,69.5,48.6,79.2c7,2.4,14.3,3.7,21.7,3.7l0,0c11.6-0.1,23.1-3.3,33.2-9.2
	c10.5-25.9-3.8-73.4-9.7-84.3c-1.1,0-2.7,0-4.7,0C345.8,542,303.9,545.8,272,552.5z"/>
<path class="st17" d="M371.6,554.1c-3.3-2.9-6.8-5.9-10.6-8.7c-13.9-3.2-38.3-3.4-64.8,0c0.5,10.1,3.4,19.9,8.7,28.7
	c5.2,8.7,12.5,15.9,21.2,21c8.7,5.1,18.6,8,28.7,8.4s20.1-1.8,29.2-6.2C382.8,582.2,378.6,567.5,371.6,554.1L371.6,554.1z"/>
<path class="st9" d="M357.2,569.1c10.2,0,18.4-8.3,18.4-18.4c0-10.2-8.3-18.4-18.4-18.4s-18.4,8.3-18.4,18.4
	S347.1,569.1,357.2,569.1z"/>
<path class="st17" d="M188.7,597.9l-14.2-15c3.4-3.2,83.4-88.6,208.9-57.3l9.2,22.2c-47.4-12-101.1,1.3-132.6,11.3
	C215.5,573.3,189.2,597.5,188.7,597.9z"/>
<path class="st17" d="M360.6,482.9c-17.1,0.9-34.2,2.9-51,6c-20.5,3.8-40.7,9.6-60.2,17.2c-9.6,3.7-18.9,8-27.8,13
	C212.7,524,204,529.6,196,536c-7.7,6-14.8,12.6-21.2,19.9l-6.2,7.4c-0.3,0.3-2.8-1.7-3.2-1.8c-0.9-0.5-9.9-5.7-9.8-6l4.3-7.9
	c2.3-4.2,4.7-8.2,7.5-12.1c11.6-16.8,25.6-31.9,41.8-44.4c16.4-12.9,34-24.2,52.5-33.8c18.6-9.6,37.9-17.7,57.6-24.5
	c10.5-3.4,20.9-6.4,31.6-9.2c2.7,16.3,5.2,32.6,7.9,49C359.5,476.2,360,479.5,360.6,482.9z"/>
<path class="st17" d="M659.5,420.1c16.1,3.4,32,7.9,47.7,13.1c19.3,6.4,38,13.8,56.4,22.3c38.1,17.7,74.6,40.7,103.4,71.4
	c14,14.9,25.9,31.9,34.9,50.2c4,8.2,7.1,16.7,9.7,25.4c0.5,1.3,0.9,2.7,1.1,4.1l-5.1,1.7l-7.1,2.4c-1.1,0.4-1.7,1.1-2.3,0
	c-3.3-7.3-7-14.3-11.2-21c-10.6-16.2-23.7-30.6-39-42.5c-33.2-26.4-73.7-42.7-114.2-53.4c-26.9-7.4-54.3-12.1-82.1-14l6.6-49.2
	C658.6,426.9,659,423.4,659.5,420.1z"/>
<path class="st18" d="M919.6,612.2c7.1-34.2,4-69.7-9.1-102.1c-13-32.4-35.4-60.2-64.3-79.9c-28.8-19.6-63-30.3-97.9-30.7
	c-34.9-0.4-69.2,9.7-98.4,28.8c-29.2,19.1-52.2,46.5-65.8,78.7c-13.6,32.1-17.5,67.6-11,102c6.5,34.3,23.1,65.9,47.4,90.9
	c24.5,25,55.8,42.1,90,49.2c45.9,9.6,93.7,0.5,132.9-25.1C882.6,698.3,910,658.1,919.6,612.2z"/>
<path class="st18" d="M464.9,622.7c7.1-34.2,4-69.7-9.1-102.1c-13-32.4-35.4-60.2-64.3-79.9c-28.8-19.6-62.9-30.3-97.9-30.7
	c-34.9-0.4-69.2,9.7-98.4,28.8c-29.2,19.1-52.1,46.5-65.8,78.7s-17.5,67.7-11.1,102c6.5,34.3,23,65.9,47.4,90.9
	c24.5,25,55.8,42.1,90,49.2c45.9,9.6,93.6,0.5,132.9-25.1C427.8,708.7,455.2,668.6,464.9,622.7L464.9,622.7z"/>
<path class="st19" d="M746.8,765.2c-28.2,0-55.8-6.2-81.2-18.4s-47.8-29.7-65.5-51.5S569.7,648,563,620.8
	c-6.6-27.3-7.1-55.7-1.4-83.3c18.2-87.2,96-150.5,184.9-150.5c28.2,0,55.8,6.2,81.3,18.4c25.4,12.1,47.8,29.7,65.5,51.5
	c17.7,21.8,30.3,47.3,37.1,74.6c6.6,27.3,7.1,55.8,1.4,83.3C913.5,702,835.7,765.2,746.8,765.2z M746.4,411.8
	c-42.1,0-82.6,16.2-113.2,45.3c-30.5,29.1-48.7,68.6-50.9,110.7c-2.2,42.1,11.9,83.4,39.3,115.4c27.4,32,66,52.3,107.9,56.6
	c41.9,4.3,83.9-7.5,117.2-33.3c33.4-25.8,55.6-63.2,62.1-104.8c6.5-41.6-3.2-84.2-27.2-118.8s-60.3-58.8-101.5-67.5
	C769.1,412.9,757.8,411.8,746.4,411.8L746.4,411.8z"/>
<path class="st19" d="M292.1,775.7c-28.2,0-55.8-6.2-81.2-18.4c-25.4-12.1-47.8-29.7-65.5-51.5c-17.7-21.8-30.3-47.3-37.1-74.6
	c-6.6-27.3-7.1-55.7-1.4-83.3c18.2-87.2,96-150.5,184.9-150.5c28.2,0,56,6.2,81.3,18.4c25.4,12.1,47.8,29.7,65.5,51.5
	c17.7,21.8,30.3,47.3,37.1,74.7c6.6,27.3,7.1,55.8,1.4,83.4C458.8,712.4,381,775.7,292.1,775.7z M291.8,422.2
	c-31.1,0-61.5,8.8-87.7,25.5c-26.3,16.6-47.2,40.3-60.6,68.3c-13.3,28.1-18.5,59.3-14.7,90.1c3.7,30.9,16.1,59.9,35.7,84
	c19.6,24.1,45.6,42.1,75,52c29.5,9.9,61.1,11.2,91.2,4c30.2-7.4,57.6-23.1,79.2-45.4c21.5-22.3,36.5-50.2,42.7-80.7
	c4.5-21.2,4.6-42.8,0.6-64.1c-4-21.2-12.1-41.4-24-59.4c-11.9-18.1-27-33.5-44.9-45.8c-17.9-12.1-37.9-20.7-58.9-25.1
	C314.3,423.5,303.1,422.2,291.8,422.2L291.8,422.2z"/>
<path class="st19" d="M583.1,665c-0.9-0.6-9.3-5.5-10.2-6c-55.8-33.4-112-13.9-112.5-13.6L452,622c2.8-1,70.1-24.5,136.8,17.6
	L583.1,665z"/>
<linearGradient id="SVGID_5_" gradientUnits="userSpaceOnUse" x1="498.7405" y1="-264.6487" x2="500.0905" y2="-203.8999" gradientTransform="matrix(1 0 0 1 0 882)">
	<stop  offset="0" style="stop-color:#FBC4A7"/>
	<stop  offset="0.99" style="stop-color:#F5A879"/>
</linearGradient>
<path class="st20" d="M444.6,676.2c0,0,5.5-39.5,55.3-35.7c49.9,3.8,71,42.6,43.5,70.6c-52,6-78.4-3.6-78.4-3.6
	S449.2,704.9,444.6,676.2z"/>
<path class="st21" d="M500,640.5c-23.6-1.8-37.1,6.1-45,14.9c1.5,0,75.7,1.3,84.9,56.1l3.6-0.4C571,683,549.7,644.2,500,640.5z"/>
<linearGradient id="SVGID_6_" gradientUnits="userSpaceOnUse" x1="502.89" y1="-116.1362" x2="500.5791" y2="-200.6042" gradientTransform="matrix(1 0 0 1 0 882)">
	<stop  offset="0" style="stop-color:#F2A477"/>
	<stop  offset="1" style="stop-color:#B17957"/>
</linearGradient>
<path class="st22" d="M444.6,676.2c0,0,3.8,30.6,52.3,31.9c39.3,1.7,61.3-13.8,58.4-27.5c7.1,21-8.3,63.9-62.4,57
	C439,730.7,444.6,676.2,444.6,676.2z"/>
</svg>
